<svg width="61" height="61" viewBox="0 0 61 61" fill="none" xmlns="http://www.w3.org/2000/svg">
<path d="M30.5 4.06689C15.925 4.06689 4.06665 15.9253 4.06665 30.5002C4.06665 45.0752 15.925 56.9336 30.5 56.9336C45.0749 56.9336 56.9333 45.0752 56.9333 30.5002C56.9333 15.9253 45.0749 4.06689 30.5 4.06689ZM23.7209 12.2002H37.2751C43.6293 12.2002 48.8 17.369 48.8 23.7211V37.2754C48.8 43.6295 43.6312 48.8002 37.2791 48.8002H23.7249C17.3707 48.8002 12.2 43.6315 12.2 37.2793V23.7251C12.2 17.3709 17.3687 12.2002 23.7209 12.2002ZM23.7209 16.2669C19.6115 16.2669 16.2667 19.6137 16.2667 23.7251V37.2793C16.2667 41.3887 19.6135 44.7336 23.7249 44.7336H37.2791C41.3885 44.7336 44.7333 41.3868 44.7333 37.2754V23.7211C44.7333 19.6118 41.3865 16.2669 37.2751 16.2669H23.7209ZM39.9915 19.6545C40.7398 19.6545 41.3458 20.2604 41.3458 21.0087C41.3458 21.757 40.7398 22.3669 39.9915 22.3669C39.2433 22.3669 38.6333 21.757 38.6333 21.0087C38.6333 20.2604 39.2433 19.6545 39.9915 19.6545ZM30.5 20.3336C36.1059 20.3336 40.6666 24.8943 40.6666 30.5002C40.6666 36.1061 36.1059 40.6669 30.5 40.6669C24.8941 40.6669 20.3333 36.1061 20.3333 30.5002C20.3333 24.8943 24.8941 20.3336 30.5 20.3336ZM30.5 24.4002C28.8822 24.4002 27.3306 25.0429 26.1866 26.1869C25.0427 27.3308 24.4 28.8824 24.4 30.5002C24.4 32.118 25.0427 33.6696 26.1866 34.8136C27.3306 35.9576 28.8822 36.6002 30.5 36.6002C32.1178 36.6002 33.6694 35.9576 34.8133 34.8136C35.9573 33.6696 36.6 32.118 36.6 30.5002C36.6 28.8824 35.9573 27.3308 34.8133 26.1869C33.6694 25.0429 32.1178 24.4002 30.5 24.4002Z" fill="black"/>
</svg>
