<svg width="61" height="61" viewBox="0 0 61 61" fill="none" xmlns="http://www.w3.org/2000/svg">
<path fill-rule="evenodd" clip-rule="evenodd" d="M55.9168 30.5002C55.9168 44.5373 44.5373 55.9168 30.5002 55.9168C16.4629 55.9168 5.0835 44.5373 5.0835 30.5002C5.0835 16.4629 16.4629 5.0835 30.5002 5.0835C44.5373 5.0835 55.9168 16.4629 55.9168 30.5002ZM31.4108 23.8472C28.9388 24.8755 23.998 27.0036 16.5885 30.2318C15.3853 30.7104 14.755 31.1785 14.6977 31.636C14.6007 32.4097 15.5694 32.7142 16.8884 33.129C17.0678 33.1854 17.2537 33.2439 17.4443 33.3057C18.742 33.7276 20.4877 34.2212 21.3952 34.2407C22.2184 34.2585 23.1372 33.9192 24.1516 33.2225C31.0746 28.5494 34.6482 26.1875 34.8723 26.1364C35.0307 26.1005 35.25 26.0553 35.3987 26.1875C35.5474 26.3196 35.5327 26.5697 35.5169 26.6368C35.4211 27.046 31.6187 30.581 29.651 32.4102C29.0377 32.9806 28.6026 33.385 28.5136 33.4775C28.3143 33.6844 28.1112 33.8801 27.916 34.0682C26.7105 35.2305 25.8062 36.102 27.9661 37.5253C29.0041 38.2093 29.8345 38.7748 30.6631 39.3391C31.5679 39.9554 32.4705 40.57 33.6384 41.3355C33.9357 41.5305 34.2199 41.7331 34.4967 41.9303C35.5497 42.6811 36.4957 43.3557 37.6646 43.2479C38.3437 43.1856 39.0452 42.5469 39.4016 40.6422C40.2436 36.1409 41.8988 26.3877 42.2813 22.3689C42.3148 22.0168 42.2727 21.5662 42.2388 21.3683C42.2048 21.1705 42.1341 20.8886 41.8769 20.68C41.5724 20.4329 41.1025 20.3808 40.892 20.3843C39.9361 20.4014 38.4693 20.9113 31.4108 23.8472Z" fill="black"/>
</svg>
