<svg xmlns="http://www.w3.org/2000/svg" width="94" height="69" fill="none"><g fill="#000" clip-path="url(#a)"><path d="M8.115 68.752H0v-.97h2.029V1.765H0v-.97h6.425c6.086 0 8.453 6.795 8.453 14.56 0 12.621-5.41 13.592-5.41 13.592v.485s7.777.486 7.777 19.417c0 11.164-3.043 19.902-9.13 19.902M5.748 1.766v27.182h.677c2.705 0 4.429-1.456 4.396-1.456V3.222S9.13 1.766 6.425 1.766zm7.439 63.102V32.83s-2.03-2.912-5.072-2.912H5.748V67.78h2.367c3.043 0 5.072-2.912 5.072-2.912M35.842 49.335v19.417H20.625v-.97h2.029V1.765h-2.029v-.97h7.777v.97h-2.029V67.78h6.763l2.367-18.446zM72.697.795v19.417h-.338L69.992 1.766h-6.087v31.066h4.734v-8.737h.339V42.54h-.338v-8.737h-4.735V67.78h6.425l2.367-18.446h.338v19.417H58.157v-.97h2.029V1.765h-2.029v-.97zM82.84 41.569V67.78h2.03v.97h-7.777v-.97h2.029V1.766h-2.03v-.97h7.778c5.748 0 9.13 9.707 9.13 20.386 0 10.68-3.381 20.388-9.13 20.388zm2.03-.971c3.042 0 5.072-3.398 5.072-3.398V5.163s-2.029-3.397-5.072-3.397h-2.03v38.832zM54.832 31.647c1.698-.788-4.4-6.18-9.154-11.332C40.253 14.436 35.85 6.564 35.98.62c.036-1.628 17.567.474 17.458.363-.299-.304-16.977 17.65-16.185 33.388.894 17.78 19.27 33.638 18.853 34.056-.876.876-10.48.547-12.67.303-6.172-.689-4.373-20.765.697-30.057 4.662-8.542 9.003-6.242 10.7-7.029z"/></g><defs><clipPath id="a"><path fill="#fff" d="M0 0h94v69H0z"/></clipPath></defs></svg>